#!OML:ASF H:\SpeedWalk\Project 1\Capture day 2\Session 1\male.ASF
:FULLY-SPECIFIED
:DEGREES
126
root -8.293491 17.721159 -13.917372 -1.467611 -6.060054 -6.065779
lowerback 14.487649 3.319196 6.197744 
upperback 1.891526 5.553520 3.047219 
thorax -5.814637 2.607421 -1.309571 
lowerneck -11.804381 1.270567 1.954798 
upperneck 14.933218 2.278211 -5.362231 
head 6.575075 0.767527 -1.833350 
rclavicle 0.000000 0.000000 
rhumerus -20.744907 -7.289986 -82.894080 
rradius 33.838508 
rwrist -6.878787 
rhand -10.089905 -12.821843 
rfingers 0.000000 
rthumb 15.897063 -42.189363 
lclavicle 0.000000 0.000000 
lhumerus -38.603245 3.121755 87.949465 
lradius 39.439511 
lwrist -13.346826 
lhand -6.185693 15.278313 
lfingers 0.000000 
lthumb 19.653868 44.304824 
rfemur 9.907914 1.705881 30.391927 
rtibia 21.881593 
rfoot -14.205405 -2.892567 
rtoes -9.775132 
lfemur -70.951877 4.637070 -14.597552 
ltibia 80.053963 
lfoot -12.682692 -2.984857 
ltoes 5.316576 
127
root -8.284844 17.731195 -13.811388 -1.283093 -6.150539 -5.884202
lowerback 14.492856 3.362463 5.989759 
upperback 1.855570 5.575976 2.968932 
thorax -5.866168 2.620038 -1.283236 
lowerneck -11.833584 1.292624 1.973640 
upperneck 14.721106 2.296985 -5.377684 
head 6.513614 0.778630 -1.838376 
rclavicle 0.000000 0.000000 
rhumerus -20.723175 -7.191483 -82.933696 
rradius 33.918192 
rwrist -6.914109 
rhand -10.080472 -12.904695 
rfingers 0.000000 
rthumb 15.906194 -42.271461 
lclavicle 0.000000 0.000000 
lhumerus -38.617883 3.130614 87.898909 
lradius 39.257658 
lwrist -13.590630 
lhand -6.110091 15.213042 
lfingers 0.000000 
lthumb 19.726534 44.232083 
rfemur 9.903787 1.861883 30.145784 
rtibia 22.126982 
rfoot -13.948622 -2.879361 
rtoes -10.440912 
lfemur -70.964932 4.617361 -14.805589 
ltibia 80.471547 
lfoot -12.674090 -2.721464 
ltoes 5.431966 
128
root -8.276060 17.746128 -13.703373 -1.072259 -6.222591 -5.691838
lowerback 14.477228 3.404009 5.773693 
upperback 1.811182 5.593174 2.882614 
thorax -5.915536 2.630340 -1.258769 
lowerneck -11.868132 1.312416 1.997817 
upperneck 14.500832 2.311346 -5.393998 
head 6.450472 0.787862 -1.844934 
rclavicle 0.000000 0.000000 
rhumerus -20.716259 -7.133346 -82.969937 
rradius 33.987206 
rwrist -6.942002 
rhand -10.107246 -12.971848 
rfingers 0.000000 
rthumb 15.880425 -42.340649 
lclavicle 0.000000 0.000000 
lhumerus -38.625263 3.143444 87.839149 
lradius 39.071450 
lwrist -13.834521 
lhand -6.033107 15.168427 
lfingers 0.000000 
lthumb 19.800548 44.179820 
rfemur 9.902618 2.015051 29.886926 
rtibia 22.299553 
rfoot -13.607848 -2.877328 
rtoes -11.136872 
lfemur -70.964113 4.576024 -15.037161 
ltibia 80.767895 
lfoot -12.601305 -2.439029 
ltoes 5.496776 
129
root -8.267158 17.765193 -13.593550 -0.842060 -6.281295 -5.497316
lowerback 14.447460 3.443806 5.556871 
upperback 1.760177 5.606953 2.791987 
thorax -5.964007 2.639037 -1.237007 
lowerneck -11.909020 1.329260 2.018802 
upperneck 14.276309 2.320870 -5.403458 
head 6.386839 0.795099 -1.849193 
rclavicle 0.000000 0.000000 
rhumerus -20.724689 -7.111238 -83.002401 
rradius 34.046357 
rwrist -6.963131 
rhand -10.159983 -13.028754 
rfingers 0.000000 
rthumb 15.829639 -42.401607 
lclavicle 0.000000 0.000000 
lhumerus -38.627093 3.164029 87.770759 
lradius 38.879382 
lwrist -14.084235 
lhand -5.967096 15.121945 
lfingers 0.000000 
lthumb 19.864014 44.126799 
rfemur 9.911355 2.167164 29.624416 
rtibia 22.403019 
rfoot -13.189780 -2.881613 
rtoes -11.862192 
lfemur -70.950668 4.525055 -15.285597 
ltibia 80.977926 
lfoot -12.495536 -2.157869 
ltoes 5.515565 
130
root -8.258091 17.788316 -13.481741 -0.595774 -6.328914 -5.305518
lowerback 14.406366 3.481846 5.344528 
upperback 1.703065 5.618438 2.698359 
thorax -6.012134 2.646552 -1.219827 
lowerneck -11.955723 1.342784 2.034172 
upperneck 14.049065 2.325055 -5.402743 
head 6.323019 0.800213 -1.849745 
rclavicle 0.000000 0.000000 
rhumerus -20.750619 -7.127597 -83.030439 
rradius 34.093674 
rwrist -6.976491 
rhand -10.235602 -13.070931 
rfingers 0.000000 
rthumb 15.756815 -42.449591 
lclavicle 0.000000 0.000000 
lhumerus -38.625197 3.194442 87.692738 
lradius 38.680046 
lwrist -14.343811 
lhand -5.919727 15.065151 
lfingers 0.000000 
lthumb 19.909544 44.065330 
rfemur 9.935790 2.319046 29.362688 
rtibia 22.433850 
rfoot -12.690526 -2.889302 
rtoes -12.614124 
lfemur -70.923126 4.471168 -15.548491 
ltibia 81.119322 
lfoot -12.373914 -1.891533 
ltoes 5.510919 
131
root -8.248649 17.816131 -13.367013 -0.336844 -6.367360 -5.122379
lowerback 14.355539 3.518276 5.146019 
upperback 1.639463 5.629456 2.601332 
thorax -6.060187 2.653556 -1.213241 
lowerneck -12.004070 1.352810 2.048103 
upperneck 13.819262 2.322917 -5.391369 
head 6.258355 0.803039 -1.847242 
rclavicle 0.000000 0.000000 
rhumerus -20.800748 -7.196577 -83.052365 
rradius 34.120637 
rwrist -6.977459 
rhand -10.336247 -13.072326 
rfingers 0.000000 
rthumb 15.659889 -42.458579 
lclavicle 0.000000 0.000000 
lhumerus -38.624577 3.236397 87.600771 
lradius 38.470620 
lwrist -14.619869 
lhand -5.901210 15.000379 
lfingers 0.000000 
lthumb 19.927287 43.998620 
rfemur 9.987376 2.471238 29.105302 
rtibia 22.376903 
rfoot -12.089288 -2.896004 
rtoes -13.380780 
lfemur -70.874469 4.422829 -15.825634 
ltibia 81.213459 
lfoot -12.257695 -1.661838 
ltoes 5.569788 
132
root -8.238936 17.848388 -13.249322 -0.069210 -6.397039 -4.951019
lowerback 14.302428 3.553270 4.959389 
upperback 1.570110 5.640629 2.503679 
thorax -6.111934 2.660290 -1.213897 
lowerneck -12.058855 1.358915 2.055728 
upperneck 13.587099 2.313754 -5.362434 
head 6.193589 0.803425 -1.838738 
rclavicle 0.000000 0.000000 
rhumerus -20.881398 -7.309050 -83.068092 
rradius 34.137950 
rwrist -6.974537 
rhand -10.460739 -13.040293 
rfingers 0.000000 
rthumb 15.539964 -42.435903 
lclavicle 0.000000 0.000000 
lhumerus -38.626073 3.296923 87.493977 
lradius 38.252624 
lwrist -14.911548 
lhand -5.905458 14.927202 
lfingers 0.000000 
lthumb 19.923209 43.925885 
rfemur 10.069637 2.626660 28.855886 
rtibia 22.232355 
rfoot -11.380752 -2.899705 
rtoes -14.162464 
lfemur -70.800908 4.384565 -16.112115 
ltibia 81.296931 
lfoot -12.179332 -1.485638 
ltoes 5.840902 
133
root -8.229071 17.883861 -13.129125 0.201989 -6.417661 -4.787949
lowerback 14.247794 3.586698 4.779390 
upperback 1.496680 5.650954 2.406240 
thorax -6.166612 2.666423 -1.217857 
lowerneck -12.115721 1.360705 2.060746 
upperneck 13.353933 2.297475 -5.322141 
head 6.128458 0.801067 -1.826856 
rclavicle 0.000000 0.000000 
rhumerus -20.987681 -7.454558 -83.077856 
rradius 34.145668 
rwrist -6.970027 
rhand -10.599076 -12.991220 
rfingers 0.000000 
rthumb 15.406669 -42.397152 
lclavicle 0.000000 0.000000 
lhumerus -38.632857 3.372877 87.376470 
lradius 38.031031 
lwrist -15.204310 
lhand -5.939411 14.866395 
lfingers 0.000000 
lthumb 19.890580 43.868493 
rfemur 10.177332 2.781618 28.610746 
rtibia 22.022315 
rfoot -10.584352 -2.898767 
rtoes -14.962208 
lfemur -70.699697 4.349739 -16.401846 
ltibia 81.386581 
lfoot -12.169566 -1.350614 
ltoes 6.333613 
